<?xml version="1.0" standalone="no"?>
<!DOCTYPE svg PUBLIC "-//W3C//DTD SVG 20010904//EN"
 "http://www.w3.org/TR/2001/REC-SVG-20010904/DTD/svg10.dtd">
<svg version="1.0" xmlns="http://www.w3.org/2000/svg"
 width="100.000000pt" height="100.000000pt" viewBox="0 0 100.000000 100.000000"
 preserveAspectRatio="xMidYMid meet">

<g transform="translate(0.000000,100.000000) scale(0.100000,-0.100000)"
fill="#000000" stroke="none">
<path d="M373 945 c-223 -60 -363 -273 -325 -495 40 -233 264 -400 488 -364
l59 9 3 39 c3 33 1 38 -11 28 -7 -6 -30 -18 -50 -27 l-37 -15 0 80 0 80 50 0
c43 0 50 3 50 20 0 17 -7 20 -50 20 l-50 0 0 90 0 90 50 0 c43 0 50 3 50 20 0
17 -7 20 -50 20 l-50 0 0 90 0 90 93 0 94 0 11 -37 c6 -21 14 -60 18 -88 10
-74 34 -95 106 -95 l59 0 -7 -48 c-4 -36 -2 -51 9 -60 13 -11 17 -6 26 38 31
143 -15 295 -120 400 -109 109 -271 154 -416 115z m87 -105 l0 -80 -85 0 -86
0 15 29 c24 46 66 90 105 111 20 10 39 19 44 20 4 0 7 -36 7 -80z m141 24 c14
-13 36 -42 48 -64 l22 -40 -85 0 -86 0 0 80 0 80 38 -15 c20 -9 49 -27 63 -41z
m-303 -13 c-14 -15 -30 -42 -37 -60 -12 -28 -17 -31 -59 -31 l-46 0 30 31 c30
32 111 89 127 89 5 0 -2 -13 -15 -29z m403 0 c24 -15 57 -42 73 -60 l30 -31
-47 0 c-26 0 -47 4 -47 9 0 5 -15 32 -34 60 -19 28 -31 51 -27 51 4 0 27 -13
52 -29z m-475 -148 c-4 -9 -12 -50 -18 -90 l-12 -73 -59 0 -59 0 7 43 c4 23
16 63 27 90 l20 47 50 0 c43 0 49 -2 44 -17z m234 -73 l0 -90 -111 0 -112 0 7
53 c4 28 12 69 18 90 l11 37 94 0 93 0 0 -90z m388 43 c11 -27 23 -67 27 -90
l7 -43 -59 0 -59 0 -12 73 c-6 40 -14 81 -18 90 -5 15 1 17 44 17 l50 0 20
-47z m-640 -246 c6 -40 14 -81 18 -90 5 -15 -1 -17 -44 -17 l-50 0 -20 48
c-11 26 -23 66 -27 90 l-7 42 59 0 59 0 12 -73z m252 -17 l0 -90 -93 0 -94 0
-11 38 c-6 20 -14 61 -18 90 l-7 52 112 0 111 0 0 -90z m-199 -161 c7 -18 23
-45 37 -60 13 -16 20 -29 15 -29 -16 0 -97 57 -127 89 l-30 31 46 0 c42 0 47
-3 59 -31z m199 -49 c0 -44 -2 -80 -5 -80 -3 0 -23 9 -44 20 -41 20 -82 63
-107 111 l-15 29 86 0 85 0 0 -80z"/>
<path d="M667 493 c-4 -3 -7 -98 -7 -210 0 -184 2 -203 17 -203 9 0 31 14 49
31 l31 30 23 -56 c12 -30 27 -58 32 -61 11 -7 108 35 108 46 0 4 -11 33 -25
64 -14 31 -25 58 -25 61 0 2 23 5 52 7 28 2 53 8 55 14 3 10 -282 284 -297
284 -3 0 -10 -3 -13 -7z m199 -251 c-21 -2 -40 -10 -43 -18 -3 -8 7 -42 22
-76 22 -49 25 -62 14 -69 -24 -15 -29 -10 -56 51 -28 66 -43 73 -80 38 l-23
-21 0 142 0 143 102 -93 101 -94 -37 -3z"/>
</g>
</svg>
